<svg id="calculate_black_24dp_1_" data-name="calculate_black_24dp (1)" xmlns="http://www.w3.org/2000/svg" width="24" height="24" viewBox="0 0 24 24">
  <g id="Group_1000" data-name="Group 1000">
    <rect id="Rectangle_725" data-name="Rectangle 725" width="24" height="24" fill="none"/>
  </g>
  <g id="Group_1001" data-name="Group 1001">
    <path id="Path_310" data-name="Path 310" d="M19,3H5A2.006,2.006,0,0,0,3,5V19a2.006,2.006,0,0,0,2,2H19a2.006,2.006,0,0,0,2-2V5A2.006,2.006,0,0,0,19,3ZM13.03,7.06,14.09,6,15.5,7.41,16.91,6l1.06,1.06L16.56,8.47l1.41,1.41-1.06,1.06L15.5,9.54l-1.41,1.41L13.03,9.89l1.41-1.41Zm-6.78.66h5v1.5h-5ZM11.5,16h-2v2H8V16H6V14.5H8v-2H9.5v2h2ZM18,17.25H13v-1.5h5Zm0-2.5H13v-1.5h5Z" fill="#b5c5d1"/>
  </g>
</svg>
