<svg xmlns="http://www.w3.org/2000/svg" width="182.666" height="25.861" viewBox="0 0 182.666 25.861">
  <g id="Group_1720" data-name="Group 1720" transform="translate(-18.167 -23.07)">
    <g id="Group_1717" data-name="Group 1717" transform="translate(51.184 25.179)">
      <g id="Group_1715" data-name="Group 1715" transform="translate(0)">
        <path id="Path_886" data-name="Path 886" d="M264.861,724.529q-2.1,2.594-6.38,2.594t-6.38-2.594a10.3,10.3,0,0,1,0-12.467q2.1-2.632,6.38-2.632t6.38,2.632a10.3,10.3,0,0,1,0,12.467Zm-3.472-2.4a7.747,7.747,0,0,0,0-7.686,3.857,3.857,0,0,0-5.854,0,7.7,7.7,0,0,0,0,7.686,3.843,3.843,0,0,0,5.854,0Z" transform="translate(-250 -705.486)" fill="#fe844b"/>
        <path id="Path_887" data-name="Path 887" d="M353.719,711.418q1.63,1.348,1.63,4.469v11.176H350.9V716.969a4.635,4.635,0,0,0-.348-2.01,2.442,2.442,0,0,0-2.418-1.279,3,3,0,0,0-3.008,1.873,6.477,6.477,0,0,0-.423,2.528v8.983h-4.34V710.5h4.2v2.421a7.352,7.352,0,0,1,1.577-1.842,5.463,5.463,0,0,1,3.381-1.005A6.363,6.363,0,0,1,353.719,711.418Z" transform="translate(-321.047 -705.99)" fill="#fe844b"/>
        <path id="Path_888" data-name="Path 888" d="M432.132,716.42a3.844,3.844,0,0,0-.626-1.675,2.626,2.626,0,0,0-2.274-1,2.994,2.994,0,0,0-3.007,2.177,9.034,9.034,0,0,0-.427,3.068,8.305,8.305,0,0,0,.427,2.931,2.9,2.9,0,0,0,2.931,2.071,2.587,2.587,0,0,0,2.167-.822,4.09,4.09,0,0,0,.778-2.132h4.431a7.256,7.256,0,0,1-1.433,3.745,6.967,6.967,0,0,1-6.051,2.847q-4.009,0-5.9-2.375a9.593,9.593,0,0,1-1.89-6.16,9.735,9.735,0,0,1,2.088-6.646,7.272,7.272,0,0,1,5.762-2.375,8.681,8.681,0,0,1,5.113,1.4q1.989,1.4,2.355,4.948Z" transform="translate(-384.648 -705.99)" fill="#4f7d96"/>
        <path id="Path_889" data-name="Path 889" d="M513.241,724.529q-2.1,2.594-6.38,2.594t-6.38-2.594a10.3,10.3,0,0,1,0-12.467q2.1-2.632,6.38-2.632t6.38,2.632a10.3,10.3,0,0,1,0,12.467Zm-3.471-2.4a7.747,7.747,0,0,0,0-7.686,3.857,3.857,0,0,0-5.854,0,7.7,7.7,0,0,0,0,7.686,3.843,3.843,0,0,0,5.854,0Z" transform="translate(-445.28 -705.486)" fill="#4f7d96"/>
        <path id="Path_890" data-name="Path 890" d="M602.1,711.418q1.63,1.348,1.63,4.469v11.176h-4.446V716.969a4.636,4.636,0,0,0-.348-2.01,2.442,2.442,0,0,0-2.418-1.279,3,3,0,0,0-3.008,1.873,6.476,6.476,0,0,0-.423,2.528v8.983h-4.339V710.5h4.2v2.421a7.35,7.35,0,0,1,1.577-1.842,5.462,5.462,0,0,1,3.381-1.005A6.363,6.363,0,0,1,602.1,711.418Z" transform="translate(-516.328 -705.99)" fill="#4f7d96"/>
        <path id="Path_891" data-name="Path 891" d="M687.552,711.418q1.63,1.348,1.63,4.469v11.176h-4.446V716.969a4.639,4.639,0,0,0-.348-2.01,2.442,2.442,0,0,0-2.418-1.279,3,3,0,0,0-3.008,1.873,6.48,6.48,0,0,0-.423,2.528v8.983H674.2V710.5h4.2v2.421a7.351,7.351,0,0,1,1.577-1.842,5.463,5.463,0,0,1,3.381-1.005A6.364,6.364,0,0,1,687.552,711.418Z" transform="translate(-583.512 -705.99)" fill="#4f7d96"/>
        <path id="Path_892" data-name="Path 892" d="M765.508,710.635a6.752,6.752,0,0,1,2.868,2.455,8.152,8.152,0,0,1,1.322,3.431,21.2,21.2,0,0,1,.143,3.294H757.754a3.982,3.982,0,0,0,1.736,3.5,4.407,4.407,0,0,0,2.392.624,3.37,3.37,0,0,0,3.3-1.9h4.43a5.42,5.42,0,0,1-1.609,3,8.066,8.066,0,0,1-6.244,2.421,9.047,9.047,0,0,1-5.846-2.042q-2.533-2.042-2.532-6.644,0-4.312,2.286-6.614a8,8,0,0,1,5.935-2.3A9.451,9.451,0,0,1,765.508,710.635Zm-6.492,3.749a4.508,4.508,0,0,0-1.156,2.569h7.476a3.62,3.62,0,0,0-1.156-2.623,3.8,3.8,0,0,0-2.574-.895A3.441,3.441,0,0,0,759.016,714.384Z" transform="translate(-645.768 -705.822)" fill="#4f7d96"/>
        <path id="Path_893" data-name="Path 893" d="M843.44,716.42a3.844,3.844,0,0,0-.626-1.675,2.627,2.627,0,0,0-2.274-1,2.994,2.994,0,0,0-3.007,2.177,9.039,9.039,0,0,0-.427,3.068,8.31,8.31,0,0,0,.427,2.931,2.9,2.9,0,0,0,2.931,2.071,2.587,2.587,0,0,0,2.167-.822,4.088,4.088,0,0,0,.779-2.132h4.431a7.256,7.256,0,0,1-1.433,3.745,6.967,6.967,0,0,1-6.051,2.847q-4.008,0-5.9-2.375a9.594,9.594,0,0,1-1.89-6.16,9.734,9.734,0,0,1,2.088-6.646,7.272,7.272,0,0,1,5.762-2.375,8.681,8.681,0,0,1,5.113,1.4q1.989,1.4,2.355,4.948Z" transform="translate(-708.025 -705.99)" fill="#4f7d96"/>
        <path id="Path_894" data-name="Path 894" d="M906.483,698.7v-3.091H908.8v-4.629h4.294v4.629h2.7V698.7h-2.7v8.77a1.972,1.972,0,0,0,.259,1.271,2.85,2.85,0,0,0,1.583.251q.2,0,.419-.008c.147,0,.292-.012.434-.023v3.243l-2.056.076q-3.075.107-4.2-1.066a3.173,3.173,0,0,1-.731-2.3V698.7Z" transform="translate(-766.137 -690.983)" fill="#4f7d96"/>
      </g>
    </g>
    <g id="Group_1718" data-name="Group 1718" transform="translate(18.167 23.07)">
      <path id="Path_915" data-name="Path 915" d="M469.265,382.474a12.93,12.93,0,1,1,5.763-24.508,13.859,13.859,0,0,0-2.921,2.586,9.428,9.428,0,1,0,0,17.983,13.855,13.855,0,0,0,2.921,2.586A12.94,12.94,0,0,1,469.265,382.474Z" transform="translate(-456.334 -356.613)" fill="#4f7d96"/>
      <path id="Path_917" data-name="Path 917" d="M555.164,459.818a4.441,4.441,0,1,1,4.441-4.441A4.446,4.446,0,0,1,555.164,459.818Zm0-7.57a3.129,3.129,0,1,0,3.129,3.129A3.133,3.133,0,0,0,555.164,452.248Z" transform="translate(-542.228 -442.447)" fill="#fe844b"/>
      <path id="Path_919" data-name="Path 919" d="M684.32,428.429a8.527,8.527,0,0,1-2.921-1.952,9.427,9.427,0,0,0,0-11.868,8.528,8.528,0,0,1,2.921-1.952,12.93,12.93,0,0,1,0,15.773Z" transform="translate(-661.142 -407.612)" fill="#fe844b"/>
    </g>
  </g>
</svg>
