<svg id="contact_support_black_24dp" xmlns="http://www.w3.org/2000/svg" width="24" height="24" viewBox="0 0 24 24">
  <path id="Path_190" data-name="Path 190" d="M0,0H24V24H0Z" fill="none"/>
  <path id="Path_191" data-name="Path 191" d="M10.5,2A7.371,7.371,0,0,0,3,9.225a7.371,7.371,0,0,0,7.5,7.225h.441V19C15.229,17.011,18,13.05,18,9.225A7.371,7.371,0,0,0,10.5,2Zm.882,12.325H9.618v-1.7h1.765Zm0-2.975H9.618c0-2.763,2.647-2.55,2.647-4.25a1.766,1.766,0,0,0-3.529,0H6.971A3.466,3.466,0,0,1,10.5,3.7a3.466,3.466,0,0,1,3.529,3.4C14.029,9.225,11.382,9.438,11.382,11.35Z" transform="translate(1.31 1.541)" fill="#4f7d96"/>
</svg>
